<svg version="1.1" id="Layer_1" xmlns="http://www.w3.org/2000/svg" xmlns:xlink="http://www.w3.org/1999/xlink" x="0px" y="0px"
	 width="100%" viewBox="0 0 200 200" enable-background="new 0 0 200 200" xml:space="preserve">
<path fill="#000000" opacity="1.000000" stroke="none" 
	d="
M96.000000,201.000000 
	C64.000000,201.000000 32.500004,201.000000 1.000004,201.000000 
	C1.000003,134.333344 1.000003,67.666679 1.000001,1.000013 
	C67.666656,1.000009 134.333313,1.000009 200.999969,1.000004 
	C200.999985,67.666649 200.999985,134.333298 201.000000,200.999969 
	C166.166672,201.000000 131.333328,201.000000 96.000000,201.000000 
M16.281458,134.361084 
	C36.920353,141.658295 51.263443,131.796951 51.271851,110.301781 
	C51.276348,98.809372 51.327354,87.316597 51.247162,75.824760 
	C51.222679,72.316597 52.105698,70.063469 56.180473,69.899071 
	C57.362808,69.851364 58.489708,68.429558 59.642021,67.637672 
	C58.432808,66.843575 57.237545,65.386833 56.012157,65.361038 
	C46.855679,65.168251 37.692966,65.299889 28.532833,65.237762 
	C25.290462,65.215767 24.378130,66.554436 25.568651,69.737953 
	C26.370058,69.823242 27.173161,69.954636 27.980274,69.987503 
	C35.914375,70.310585 35.985737,70.372803 35.989704,78.303513 
	C35.995708,90.295601 36.027225,102.287872 35.963348,114.279617 
	C35.949249,116.926537 35.926979,119.654556 35.314667,122.202538 
	C33.113281,131.363098 21.454878,134.703964 14.697981,128.132751 
	C13.751553,127.212326 13.522610,125.554138 12.961545,124.237457 
	C14.227232,123.809929 15.485783,123.040359 16.759834,123.013779 
	C22.430960,122.895462 25.523478,119.829071 25.196709,114.373940 
	C24.915623,109.681458 21.249413,106.106781 16.406309,105.803017 
	C10.963340,105.461624 5.919460,109.567062 5.084226,115.018570 
	C3.796974,123.420349 6.937560,129.089890 16.281458,134.361084 
M115.532837,78.955544 
	C116.883331,78.384583 118.397163,78.031685 119.536209,77.178452 
	C120.577065,76.398781 121.212318,75.077644 122.569878,73.272270 
	C113.337631,73.272270 105.745056,73.272270 96.804398,73.272270 
	C98.221924,75.170059 98.872482,77.002266 99.883278,77.229080 
	C104.434029,78.250259 106.549583,81.560364 106.666061,85.465195 
	C106.973389,95.767265 107.271515,106.147423 106.345711,116.385490 
	C105.503944,125.694206 98.965553,130.293381 90.177994,129.495834 
	C81.435135,128.702347 77.128532,123.685669 77.034042,113.917648 
	C76.943794,104.587318 76.975800,95.255264 77.023697,85.924324 
	C77.064972,77.883507 76.016296,77.516953 84.885979,76.997681 
	C85.158379,76.981735 85.415268,76.700874 86.871658,75.833229 
	C85.476784,74.690437 84.461060,73.134956 83.413788,73.113419 
	C74.108627,72.922066 64.797882,73.002129 55.596130,73.002129 
	C54.296104,76.204109 55.357239,77.427422 58.255741,77.248505 
	C62.294964,76.999176 63.297142,79.065598 63.222492,82.791351 
	C63.025593,92.618500 63.020844,102.454491 63.192780,112.282532 
	C63.337780,120.570969 63.904102,128.879715 72.908371,133.024872 
	C81.769180,137.103989 90.957390,137.459106 100.046204,134.130890 
	C107.182961,131.517502 111.629730,126.140564 112.000694,118.398460 
	C112.478439,108.427498 112.206284,98.421478 112.633667,88.446693 
	C112.762199,85.446877 114.145950,82.500839 115.532837,78.955544 
M133.047409,109.201622 
	C139.195633,108.911499 141.486099,110.507973 141.069672,116.293068 
	C140.623978,122.485107 144.517487,129.835297 136.060822,134.488953 
	C141.985016,134.488953 146.910187,134.488953 151.835373,134.488953 
	C145.350403,132.247940 147.162720,127.032913 147.039719,122.667580 
	C146.969513,120.175453 147.605453,117.495026 146.884995,115.229630 
	C145.838913,111.940231 144.571732,107.356552 142.087128,106.237656 
	C139.041336,104.866058 134.618683,106.346390 130.842453,106.926613 
	C129.698776,107.102348 128.724792,108.382584 127.651665,109.172684 
	C125.533493,104.380859 122.343292,103.628922 116.535957,106.236076 
	C118.026955,107.945068 121.082779,109.926979 120.873337,111.463913 
	C119.818871,119.201721 125.138298,128.064484 116.874870,134.404114 
	C122.066734,134.404114 126.960121,134.404114 132.657776,134.404114 
	C124.658966,128.579971 124.946709,114.506294 133.047409,109.201622 
M197.000839,126.702621 
	C196.874634,125.821709 196.748428,124.940796 196.622238,124.059883 
	C194.829926,125.472008 194.421616,127.354958 193.368515,128.751740 
	C192.383072,130.058762 190.782532,131.493210 189.322586,131.648499 
	C188.307846,131.756454 186.140274,129.838165 186.089294,128.750061 
	C185.781769,122.186646 185.936401,115.601585 185.936401,108.869423 
	C188.806961,108.717270 190.973145,108.740440 193.084152,108.410576 
	C193.760361,108.304909 194.290665,107.265442 194.887711,106.653206 
	C194.303879,106.193184 193.758759,105.406570 193.129242,105.331932 
	C190.879196,105.065193 188.600494,105.039963 186.134583,104.913185 
	C185.850433,100.780869 185.596222,97.084045 185.342010,93.387222 
	C184.804718,93.380989 184.267426,93.374748 183.730133,93.368507 
	C182.842575,96.105034 182.412918,99.126709 180.936920,101.496788 
	C179.499847,103.804367 176.991669,105.444908 174.546387,107.764832 
	C176.630020,108.346397 178.148682,108.770271 179.959869,109.275803 
	C179.959869,115.328346 179.585098,121.334282 180.132858,127.254860 
	C180.372849,129.848907 181.998154,133.798370 183.880844,134.411789 
	C186.759995,135.349899 190.663315,134.534668 193.626297,133.274765 
	C195.256592,132.581543 195.853241,129.457504 197.000839,126.702621 
M166.591476,109.810722 
	C166.479111,108.351784 166.366760,106.892845 166.212387,104.888359 
	C162.115295,105.227165 158.379791,105.536064 154.644302,105.844971 
	C154.509720,106.425529 154.375122,107.006088 154.240540,107.586647 
	C160.701675,107.577660 161.482117,111.351311 161.000107,116.203850 
	C160.738922,118.833252 160.776001,121.524597 160.993713,124.161972 
	C161.352661,128.510361 161.050018,132.317841 155.765915,133.428894 
	C155.685242,133.445877 155.718658,134.005585 155.686035,134.509949 
	C161.077347,134.509949 166.439545,134.509949 171.801743,134.509949 
	C172.219116,134.136551 172.636490,133.763153 173.053864,133.389755 
	C164.873138,132.602341 166.676880,127.198608 166.607986,122.700493 
	C166.546997,118.718384 166.594345,114.734627 166.591476,109.810722 
M160.165512,94.125610 
	C162.064117,94.064545 163.962738,94.003471 165.861359,93.942406 
	C165.807419,92.383537 166.246887,90.522072 165.537415,89.365227 
	C165.006577,88.499641 162.061462,87.913017 161.806427,88.291229 
	C160.787094,89.802956 160.398834,91.740196 160.165512,94.125610 
z"/>
<path fill="#4C9706" opacity="1.000000" stroke="none" 
	d="
M15.943206,134.186096 
	C6.937560,129.089890 3.796974,123.420349 5.084226,115.018570 
	C5.919460,109.567062 10.963340,105.461624 16.406309,105.803017 
	C21.249413,106.106781 24.915623,109.681458 25.196709,114.373940 
	C25.523478,119.829071 22.430960,122.895462 16.759834,123.013779 
	C15.485783,123.040359 14.227232,123.809929 12.961546,124.237457 
	C13.522610,125.554138 13.751553,127.212326 14.697981,128.132751 
	C21.454878,134.703964 33.113281,131.363098 35.314667,122.202538 
	C35.926979,119.654556 35.949249,116.926537 35.963348,114.279617 
	C36.027225,102.287872 35.995708,90.295601 35.989704,78.303513 
	C35.985737,70.372803 35.914375,70.310585 27.980274,69.987503 
	C27.173161,69.954636 26.370058,69.823242 25.568651,69.737953 
	C24.378130,66.554436 25.290462,65.215767 28.532833,65.237762 
	C37.692966,65.299889 46.855679,65.168251 56.012157,65.361038 
	C57.237545,65.386833 58.432808,66.843575 59.642021,67.637665 
	C58.489708,68.429558 57.362808,69.851364 56.180473,69.899071 
	C52.105698,70.063469 51.222679,72.316597 51.247162,75.824760 
	C51.327354,87.316597 51.276348,98.809372 51.271851,110.301781 
	C51.263443,131.796951 36.920353,141.658295 15.943206,134.186096 
z"/>
<path fill="#C70000" opacity="1.000000" stroke="none" 
	d="
M115.243759,79.242859 
	C114.145950,82.500839 112.762199,85.446877 112.633667,88.446693 
	C112.206284,98.421478 112.478439,108.427498 112.000694,118.398460 
	C111.629730,126.140564 107.182961,131.517502 100.046204,134.130890 
	C90.957390,137.459106 81.769180,137.103989 72.908371,133.024872 
	C63.904102,128.879715 63.337780,120.570969 63.192780,112.282532 
	C63.020844,102.454491 63.025593,92.618500 63.222492,82.791351 
	C63.297142,79.065598 62.294964,76.999176 58.255741,77.248505 
	C55.357239,77.427422 54.296104,76.204109 55.596130,73.002129 
	C64.797882,73.002129 74.108627,72.922066 83.413788,73.113419 
	C84.461060,73.134956 85.476784,74.690437 86.871658,75.833229 
	C85.415268,76.700874 85.158379,76.981735 84.885979,76.997681 
	C76.016296,77.516953 77.064972,77.883507 77.023697,85.924324 
	C76.975800,95.255264 76.943794,104.587318 77.034042,113.917648 
	C77.128532,123.685669 81.435135,128.702347 90.177994,129.495834 
	C98.965553,130.293381 105.503944,125.694206 106.345711,116.385490 
	C107.271515,106.147423 106.973389,95.767265 106.666061,85.465195 
	C106.549583,81.560364 104.434029,78.250259 99.883278,77.229080 
	C98.872482,77.002266 98.221924,75.170059 96.804398,73.272270 
	C105.745056,73.272270 113.337631,73.272270 122.569878,73.272270 
	C121.212318,75.077644 120.577065,76.398781 119.536209,77.178452 
	C118.397163,78.031685 116.883331,78.384583 115.243759,79.242859 
z"/>
<path fill="#C10000" opacity="1.000000" stroke="none" 
	d="
M132.673218,109.336121 
	C124.946709,114.506294 124.658966,128.579971 132.657776,134.404114 
	C126.960121,134.404114 122.066734,134.404114 116.874870,134.404114 
	C125.138298,128.064484 119.818871,119.201721 120.873337,111.463913 
	C121.082779,109.926979 118.026955,107.945068 116.535957,106.236076 
	C122.343292,103.628922 125.533493,104.380859 127.651665,109.172684 
	C128.724792,108.382584 129.698776,107.102348 130.842453,106.926613 
	C134.618683,106.346390 139.041336,104.866058 142.087128,106.237656 
	C144.571732,107.356552 145.838913,111.940231 146.884995,115.229630 
	C147.605453,117.495026 146.969513,120.175453 147.039719,122.667580 
	C147.162720,127.032913 145.350403,132.247940 151.835373,134.488953 
	C146.910187,134.488953 141.985016,134.488953 136.060822,134.488953 
	C144.517487,129.835297 140.623978,122.485107 141.069672,116.293068 
	C141.486099,110.507973 139.195633,108.911499 132.673218,109.336121 
z"/>
<path fill="#BB0000" opacity="1.000000" stroke="none" 
	d="
M196.958374,127.066010 
	C195.853241,129.457504 195.256592,132.581543 193.626297,133.274765 
	C190.663315,134.534668 186.759995,135.349899 183.880844,134.411789 
	C181.998154,133.798370 180.372849,129.848907 180.132858,127.254860 
	C179.585098,121.334282 179.959869,115.328346 179.959869,109.275803 
	C178.148682,108.770271 176.630020,108.346397 174.546387,107.764832 
	C176.991669,105.444908 179.499847,103.804367 180.936920,101.496788 
	C182.412918,99.126709 182.842575,96.105034 183.730133,93.368507 
	C184.267426,93.374748 184.804718,93.380989 185.342010,93.387222 
	C185.596222,97.084045 185.850433,100.780869 186.134583,104.913185 
	C188.600494,105.039963 190.879196,105.065193 193.129242,105.331932 
	C193.758759,105.406570 194.303879,106.193184 194.887711,106.653206 
	C194.290665,107.265442 193.760361,108.304909 193.084152,108.410576 
	C190.973145,108.740440 188.806961,108.717270 185.936401,108.869423 
	C185.936401,115.601585 185.781769,122.186646 186.089294,128.750061 
	C186.140274,129.838165 188.307846,131.756454 189.322586,131.648499 
	C190.782532,131.493210 192.383072,130.058762 193.368515,128.751740 
	C194.421616,127.354958 194.829926,125.472008 196.622238,124.059883 
	C196.748428,124.940796 196.874634,125.821709 196.958374,127.066010 
z"/>
<path fill="#B90000" opacity="1.000000" stroke="none" 
	d="
M166.592682,110.281158 
	C166.594345,114.734627 166.546997,118.718384 166.607986,122.700493 
	C166.676880,127.198608 164.873138,132.602341 173.053864,133.389755 
	C172.636490,133.763153 172.219116,134.136551 171.801743,134.509949 
	C166.439545,134.509949 161.077347,134.509949 155.686035,134.509949 
	C155.718658,134.005585 155.685242,133.445877 155.765915,133.428894 
	C161.050018,132.317841 161.352661,128.510361 160.993713,124.161972 
	C160.776001,121.524597 160.738922,118.833252 161.000107,116.203850 
	C161.482117,111.351311 160.701675,107.577660 154.240540,107.586647 
	C154.375122,107.006088 154.509720,106.425529 154.644302,105.844971 
	C158.379791,105.536064 162.115295,105.227165 166.212387,104.888359 
	C166.366760,106.892845 166.479111,108.351784 166.592682,110.281158 
z"/>
<path fill="#BA0000" opacity="1.000000" stroke="none" 
	d="
M159.971283,93.822807 
	C160.398834,91.740196 160.787094,89.802956 161.806427,88.291229 
	C162.061462,87.913017 165.006577,88.499641 165.537415,89.365227 
	C166.246887,90.522072 165.807419,92.383537 165.861359,93.942406 
	C163.962738,94.003471 162.064117,94.064545 159.971283,93.822807 
z"/>
</svg>