<?xml version="1.0" encoding="utf-8"?>
<!-- Generator: Adobe Illustrator 21.0.0, SVG Export Plug-In . SVG Version: 6.00 Build 0)  -->
<svg version="1.1" id="Layer_1" xmlns="http://www.w3.org/2000/svg" xmlns:xlink="http://www.w3.org/1999/xlink" x="0px" y="0px"
	 viewBox="0 0 316.5 284.5" style="enable-background:new 0 0 316.5 284.5;" xml:space="preserve">
<style type="text/css">
	.st0{fill:#FF6C37;}
	.st1{fill:#FFFFFF;}
</style>
<g>
	<path class="st0" d="M0,282.1v-42.9c0-0.5,0.2-1,0.6-1.3c0.4-0.4,1-0.6,1.6-0.5h12.1c3.6-0.2,7.1,1,9.8,3.3
		c2.5,2.2,3.7,5.7,3.7,10.5v0.6c0,4.8-1.3,8.3-3.8,10.5c-2.8,2.3-6.4,3.5-10,3.4H5.4v16.6c0,0.6-0.3,1.1-0.8,1.4
		c-1.2,0.7-2.6,0.7-3.8,0C0.3,283.2,0,282.7,0,282.1L0,282.1z M5.4,261.1H14c2.3,0.1,4.6-0.7,6.2-2.3c1.6-1.9,2.4-4.3,2.2-6.8v-0.8
		c0.2-2.5-0.6-4.9-2.2-6.8c-1.7-1.6-3.9-2.4-6.2-2.3H5.4L5.4,261.1z"/>
	<path class="st0" d="M46.6,270.4v-19.2c0-4.8,1.3-8.3,3.8-10.6c5.9-4.4,14.1-4.4,20,0c2.5,2.2,3.8,5.8,3.8,10.6v19.2
		c0,4.8-1.3,8.3-3.8,10.6c-5.9,4.5-14.1,4.5-20.1,0C47.8,278.8,46.6,275.3,46.6,270.4z M51.9,270.4c0,6,2.8,9.1,8.4,9.1
		c2.3,0.1,4.6-0.7,6.2-2.3c1.6-1.9,2.4-4.3,2.2-6.8v-19.2c0.2-2.5-0.6-4.9-2.2-6.8c-1.7-1.6-3.9-2.4-6.2-2.3c-5.6,0-8.4,3-8.4,9.1
		L51.9,270.4z"/>
	<path class="st0" d="M93.1,277.4c0-0.7,0.3-1.4,0.7-2c0.3-0.6,0.9-0.9,1.6-1c0.6,0.1,1.1,0.4,1.5,0.8c0.6,0.5,1.2,1.1,1.9,1.8
		c0.9,0.8,1.9,1.4,3,1.8c1.5,0.6,3.1,0.8,4.7,0.8c2.3,0.1,4.7-0.6,6.5-2c1.7-1.5,2.5-3.7,2.4-5.9c0.1-2.1-0.7-4.2-2.2-5.7
		c-1.5-1.5-3.3-2.6-5.2-3.4c-2.1-0.8-4.1-1.6-6.2-2.5c-2.1-0.9-3.9-2.2-5.3-4c-1.5-2-2.3-4.5-2.2-7c0-2,0.4-4,1.3-5.9
		c0.8-1.5,1.9-2.8,3.4-3.7c1.4-0.8,2.9-1.4,4.4-1.8c1.6-0.4,3.3-0.6,4.9-0.6c2.6,0,5.1,0.4,7.6,1.1c2.4,0.8,3.6,1.8,3.6,3.1
		c0,0.7-0.3,1.3-0.6,1.9c-0.3,0.6-1,1-1.7,1c-1-0.3-1.9-0.7-2.9-1.1c-1.9-0.8-3.9-1.2-5.9-1.2c-2.2-0.1-4.4,0.4-6.2,1.6
		c-1.6,1.1-2.6,3.1-2.4,5.1c-0.1,1.8,0.7,3.6,2.1,4.8c1.6,1.3,3.4,2.3,5.3,2.9c2.1,0.7,4.1,1.6,6.2,2.5c2.1,1,3.9,2.6,5.2,4.5
		c1.5,2.3,2.3,5.1,2.2,7.9c0,4.4-1.3,7.7-3.8,10c-2.9,2.3-6.5,3.5-10.2,3.4c-3.4,0.1-6.7-0.7-9.6-2.4
		C94.4,280.5,93.1,279,93.1,277.4L93.1,277.4z"/>
	<path class="st0" d="M136.7,239.6c0-0.6,0.2-1.2,0.5-1.7c0.3-0.5,0.8-0.7,1.4-0.7h26c0.6,0,1.1,0.2,1.4,0.7
		c0.3,0.5,0.5,1.1,0.5,1.7c0,0.6-0.2,1.2-0.5,1.7c-0.3,0.5-0.8,0.8-1.4,0.8h-10.2v39.9c0,0.6-0.3,1.1-0.8,1.4
		c-1.2,0.7-2.6,0.7-3.8,0c-0.5-0.3-0.8-0.8-0.8-1.4v-39.9h-10.4c-0.6,0-1.1-0.2-1.4-0.7C136.9,240.9,136.7,240.3,136.7,239.6
		L136.7,239.6z"/>
	<path class="st0" d="M184.7,282.1V240c-0.2-1.3,0.7-2.5,1.9-2.7c0.3,0,0.6,0,0.8,0c1.7,0,3.1,1.1,4.3,3.4l10,19.2l10.1-19.2
		c1.2-2.3,2.6-3.4,4.3-3.4c1.3-0.2,2.5,0.7,2.7,1.9c0,0.2,0,0.4,0,0.7V282c0,0.6-0.3,1.1-0.8,1.4c-1.2,0.7-2.6,0.7-3.8,0
		c-0.5-0.3-0.8-0.8-0.8-1.4v-33.5l-9.6,18.1c-0.3,0.9-1.1,1.5-2.1,1.6c-0.9-0.1-1.7-0.7-2-1.6l-9.6-18.4v33.9c0,0.6-0.3,1.1-0.8,1.4
		c-0.5,0.4-1.2,0.6-1.8,0.6c-0.7,0-1.3-0.2-1.9-0.5C185,283.3,184.7,282.7,184.7,282.1L184.7,282.1z"/>
	<path class="st0" d="M237.2,281.8c0-0.2,0.1-0.4,0.1-0.5l13.1-42.1c0.4-1.2,1.4-1.9,3.3-1.9s2.9,0.6,3.3,1.9l13.1,42.3
		c0,0.1,0,0.2,0,0.2c0,0.1,0,0.1,0,0.2c0,0.7-0.4,1.3-1,1.6c-0.7,0.4-1.5,0.6-2.3,0.6c-0.8,0.1-1.6-0.4-1.9-1.2l-2.8-9.4h-16.8
		l-2.8,9.4c-0.3,0.9-1.1,1.4-2,1.2c-0.8,0-1.5-0.2-2.2-0.6C237.5,283.1,237.1,282.5,237.2,281.8z M246.4,269h14.3l-7.1-23.9
		L246.4,269z"/>
	<path class="st0" d="M288.5,282.1v-42.9c0-1.2,0.9-1.9,2.7-1.9c0.8,0,1.6,0.3,2.3,0.8c0.8,0.7,1.4,1.6,1.8,2.6l15.9,31.2v-32.7
		c0-0.6,0.3-1.1,0.8-1.4c1.2-0.6,2.6-0.6,3.8,0c0.5,0.3,0.8,0.8,0.8,1.4v43c0,0.6-0.3,1.1-0.8,1.4c-0.6,0.4-1.2,0.5-1.9,0.5
		c-1.5-0.1-2.8-1-3.4-2.4l-16.6-32.1v32.6c0,0.6-0.3,1.1-0.8,1.4c-1.2,0.7-2.6,0.7-3.8,0C288.8,283.2,288.5,282.7,288.5,282.1
		L288.5,282.1z"/>
	<path class="st0" d="M257.5,112.7C264.5,58,225.8,7.9,171,0.8S66.1,32.5,59.1,87.3s31.7,104.9,86.4,111.9c0,0,0,0,0,0
		C200.3,206.2,250.4,167.5,257.5,112.7z"/>
</g>
<path class="st1" d="M194.4,64.3l-42.2,42.2l-11.9-11.9C181.8,53,185.9,56.6,194.4,64.3z"/>
<path class="st0" d="M152.2,107.4c-0.3,0-0.5-0.1-0.7-0.3l-12-12c-0.4-0.4-0.4-1,0-1.4c42.2-42.2,46.6-38.2,55.5-30.3
	c0.2,0.2,0.3,0.4,0.3,0.7c0,0.3-0.1,0.5-0.3,0.7l-42.1,42.2C152.7,107.3,152.5,107.4,152.2,107.4L152.2,107.4z M141.7,94.4
	l10.5,10.6l40.7-40.7C185.5,57.8,180.5,55.7,141.7,94.4L141.7,94.4z"/>
<path class="st1" d="M164.3,118.5L152.8,107l42.2-42.2C206.3,76.2,189.4,94.7,164.3,118.5z"/>
<path class="st0" d="M164.3,119.5L164.3,119.5c-0.3,0-0.5-0.1-0.7-0.3l-11.5-11.5c-0.2-0.2-0.3-0.4-0.3-0.7c0-0.3,0.1-0.5,0.3-0.7
	l42.2-42.2c0.4-0.4,1-0.4,1.4,0c2.6,2.4,4,5.8,3.9,9.3c-0.2,11.1-12.8,25.2-34.6,45.8C164.8,119.4,164.5,119.5,164.3,119.5z
	 M154.2,107c6.4,6.5,9.1,9.1,10.1,10.1c16.8-16,33.1-32.4,33.2-43.7c0.1-2.6-0.9-5.2-2.6-7.2L154.2,107z"/>
<path class="st1" d="M140.5,94.8l8.5,8.5c0.2,0.2,0.2,0.4,0,0.6c-0.1,0.1-0.1,0.1-0.2,0.1l-17.6,3.8c-0.9,0.2-1.8-0.4-2-1.3
	c-0.1-0.6,0-1.1,0.4-1.5L140,94.8C140.2,94.6,140.4,94.6,140.5,94.8L140.5,94.8z"/>
<path class="st0" d="M130.9,108.8c-1.5,0-2.6-1.2-2.6-2.7c0-0.7,0.3-1.4,0.8-1.9l10.2-10.2c0.6-0.5,1.4-0.5,2,0l8.5,8.5
	c0.6,0.5,0.6,1.4,0,2c-0.2,0.2-0.4,0.3-0.7,0.4l-17.6,3.8C131.3,108.8,131.1,108.8,130.9,108.8z M140.3,95.9l-9.8,9.8
	c-0.2,0.2-0.3,0.5-0.1,0.8c0.1,0.3,0.4,0.4,0.7,0.3l16.5-3.6L140.3,95.9z"/>
<path class="st1" d="M216.7,40.9c-6.4-6.2-16.7-6-22.9,0.5s-6,16.7,0.5,22.9c5.3,5.1,13.3,6,19.6,2.2l-11.3-11.3L216.7,40.9z"/>
<path class="st0" d="M205.5,69.7c-9.5,0-17.2-7.7-17.2-17.2c0-9.5,7.7-17.2,17.2-17.2c4.4,0,8.7,1.7,11.9,4.8
	c0.2,0.2,0.3,0.4,0.3,0.7c0,0.3-0.1,0.5-0.3,0.7L204,55l10.6,10.6c0.2,0.2,0.3,0.5,0.3,0.8c0,0.3-0.2,0.6-0.5,0.7
	C211.7,68.9,208.6,69.7,205.5,69.7z M205.5,37.4c-8.4,0-15.2,6.8-15.1,15.2c0,8.4,6.8,15.2,15.2,15.1c2.3,0,4.6-0.5,6.7-1.6
	l-10.4-10.4c-0.2-0.2-0.3-0.4-0.3-0.7c0-0.3,0.1-0.5,0.3-0.7l13.4-13.4C212.5,38.6,209.1,37.4,205.5,37.4L205.5,37.4z"/>
<path class="st1" d="M217,41.1l-0.3-0.2L202.5,55l11.3,11.3c1.1-0.7,2.2-1.5,3.1-2.4C223.3,57.7,223.3,47.4,217,41.1
	C217,41.1,217,41.1,217,41.1z"/>
<path class="st0" d="M213.9,67.4c-0.3,0-0.5-0.1-0.7-0.3l-11.3-11.3c-0.2-0.2-0.3-0.4-0.3-0.7c0-0.3,0.1-0.5,0.3-0.7L216,40.1
	c0.4-0.4,1-0.4,1.4,0l0.3,0.2c6.7,6.7,6.7,17.5,0.1,24.3c-1,1-2.1,1.9-3.3,2.6C214.2,67.3,214,67.4,213.9,67.4L213.9,67.4z M204,55
	l10,10.1c0.8-0.5,1.6-1.2,2.3-1.8c5.7-5.7,6-15,0.5-21L204,55z"/>
<path class="st1" d="M196.1,66c-2.4-2.4-6.3-2.4-8.7,0l-37.7,37.7l6.3,6.3l39.9-35c2.5-2.3,2.8-6.1,0.5-8.7
	C196.3,66.2,196.2,66.1,196.1,66z"/>
<path class="st0" d="M156,111c-0.3,0-0.5-0.1-0.7-0.3l-6.3-6.3c-0.4-0.4-0.4-1,0-1.4c0,0,0,0,0,0l37.7-37.7c2.8-2.8,7.3-2.8,10.1,0
	c2.8,2.8,2.8,7.3,0,10.1c-0.1,0.1-0.2,0.2-0.3,0.3l-39.9,35C156.4,110.9,156.2,111,156,111z M151.1,103.7l4.9,4.9l39.2-34.4
	c2.2-1.8,2.4-5.1,0.6-7.3s-5.1-2.4-7.3-0.6c-0.1,0.1-0.2,0.2-0.4,0.3L151.1,103.7z"/>
<path class="st1" d="M120.8,146.6c-0.4,0.2-0.6,0.6-0.5,1l1.7,7.2c0.4,1-0.2,2.2-1.3,2.5c-0.8,0.3-1.7,0-2.2-0.6l-10.9-10.9
	l35.9-35.9l12.4,0.2l8.4,8.4C162.2,120.3,150.1,131.9,120.8,146.6L120.8,146.6z"/>
<path class="st0" d="M120,158.3c-0.8,0-1.6-0.3-2.1-0.9l-11-10.9c-0.2-0.2-0.3-0.4-0.3-0.7c0-0.3,0.1-0.5,0.3-0.7l35.9-35.9
	c0.2-0.2,0.5-0.3,0.7-0.3l12.4,0.2c0.3,0,0.5,0.1,0.7,0.3l8.4,8.4c0.2,0.2,0.3,0.5,0.3,0.8c0,0.3-0.1,0.5-0.4,0.7l-0.7,0.6
	c-10.6,9.3-25,18.6-42.9,27.5l1.7,7.1c0.3,1.3-0.3,2.7-1.5,3.4C121,158.2,120.5,158.3,120,158.3z M109,145.8l10.3,10.2
	c0.3,0.5,0.9,0.7,1.4,0.4c0.5-0.3,0.7-0.9,0.4-1.4l0,0l-1.7-7.2c-0.2-0.9,0.2-1.7,1-2.1c17.7-8.9,32-18.1,42.5-27.2l-7.4-7.4
	l-11.5-0.2L109,145.8z"/>
<path class="st1" d="M99,154.4l8.6-8.6l12.8,12.8l-20.4-1.4c-0.9-0.1-1.5-0.9-1.4-1.8C98.6,155,98.7,154.6,99,154.4L99,154.4z"/>
<path class="st0" d="M120.4,159.6L120.4,159.6l-20.5-1.4c-1.5-0.1-2.5-1.4-2.4-2.9c0.1-0.6,0.3-1.2,0.8-1.6l8.6-8.6
	c0.4-0.4,1-0.4,1.4,0c0,0,0,0,0,0l12.8,12.8c0.3,0.3,0.4,0.7,0.2,1.1C121.1,159.3,120.8,159.6,120.4,159.6L120.4,159.6z
	 M107.6,147.2l-7.9,7.9c-0.2,0.2-0.2,0.4-0.2,0.7c0.1,0.2,0.3,0.4,0.5,0.4l17.7,1.2L107.6,147.2z"/>
<path class="st0" d="M139.9,114.5c-0.6,0-1-0.5-1-1c0-0.3,0.1-0.5,0.3-0.7l9.7-9.7c0.4-0.4,1-0.4,1.4,0c0,0,0,0,0,0l6.3,6.3
	c0.3,0.3,0.4,0.6,0.3,1c-0.1,0.3-0.4,0.6-0.8,0.7l-16,3.4C140,114.5,139.9,114.5,139.9,114.5L139.9,114.5z M149.6,105.2l-6.6,6.6
	l10.9-2.3L149.6,105.2z"/>
<path class="st1" d="M155.9,110.1l-11,2.4c-0.8,0.2-1.6-0.3-1.8-1.1c-0.1-0.5,0-1,0.4-1.4l6.1-6.1L155.9,110.1z"/>
<g>
	<path class="st0" d="M144.6,113.5c-1.4,0-2.5-1.1-2.5-2.5c0-0.7,0.3-1.3,0.7-1.8l6.1-6.1c0.4-0.4,1-0.4,1.4,0c0,0,0,0,0,0l6.3,6.3
		c0.3,0.3,0.4,0.6,0.3,1c-0.1,0.3-0.4,0.6-0.8,0.7l-11,2.4C144.9,113.5,144.7,113.5,144.6,113.5L144.6,113.5z M149.6,105.2l-5.4,5.4
		c-0.2,0.2-0.2,0.4-0.1,0.6c0.1,0.2,0.3,0.3,0.6,0.3l9.2-2L149.6,105.2z"/>
	<path class="st0" d="M217.1,50.7c-0.2-0.6-0.9-0.9-1.5-0.7c-0.6,0.2-0.9,0.9-0.7,1.5c0,0.1,0.1,0.2,0.1,0.3
		c0.6,1.2,0.4,2.7-0.4,3.8c-0.4,0.5-0.3,1.2,0.1,1.6c0.5,0.4,1.2,0.3,1.6-0.2C217.8,55.2,218.1,52.7,217.1,50.7z"/>
</g>
</svg>
